<svg width="64" height="64" viewBox="0 0 64 64" fill="none" xmlns="http://www.w3.org/2000/svg">
<path fill-rule="evenodd" clip-rule="evenodd" d="M59.7358 43.7286L41.577 11.5795H41.5675C39.8558 7.956 36.2221 5.42146 32.0052 5.354C27.7786 5.42146 24.1449 7.956 22.4429 11.5795H22.4333L4.25536 43.7286C1.37711 48.7784 2.99314 55.1388 8.00378 58.0395C9.59113 58.955 11.3984 59.4272 13.2248 59.4272C13.3874 59.4272 13.5021 59.4272 13.7125 59.4272H50.2883C50.4987 59.4272 50.6134 59.4272 50.776 59.4272C52.6024 59.4272 54.4096 58.9647 55.997 58.0395C61.0076 55.1388 62.6236 48.7784 59.7454 43.7286H59.7358ZM31.8139 11.5795C34.3575 11.5795 36.4229 13.6611 36.4229 16.2245C36.4229 18.788 34.3575 20.8696 31.8139 20.8696C29.2703 20.8696 27.2049 18.788 27.2049 16.2245C27.2049 13.6611 29.2703 11.5795 31.8139 11.5795ZM35.2755 53.1921H16.6959C11.6948 53.1921 8.57752 47.7279 11.102 43.372L20.8938 26.3723C22.0891 24.31 24.7283 23.6065 26.7746 24.8111C28.8209 26.0157 29.519 28.6756 28.3237 30.7379L20.3965 44.5188H35.285C37.6565 44.5188 39.5881 46.4558 39.5881 48.8554C39.5881 51.2551 37.666 53.1921 35.285 53.1921H35.2755ZM52.7936 52.7488C50.7377 53.9438 48.1081 53.2306 46.9224 51.1491L35.2563 30.709C34.0706 28.637 34.7782 25.9868 36.8437 24.7918C38.8996 23.5969 41.5292 24.31 42.7149 26.3916L54.3809 46.8317C55.5667 48.9036 54.8591 51.5538 52.7936 52.7488Z" fill="url(#paint0_linear_1599_3994)"/>
<defs>
<linearGradient id="paint0_linear_1599_3994" x1="31.9956" y1="59.9187" x2="31.9956" y2="7.12721" gradientUnits="userSpaceOnUse">
<stop stop-color="#9E7CFF"/>
<stop offset="1" stop-color="#C78EFF"/>
</linearGradient>
</defs>
</svg>
