<?xml version="1.0" encoding="UTF-8"?>
<svg id="Layer_1" data-name="Layer 1" xmlns="http://www.w3.org/2000/svg" xmlns:xlink="http://www.w3.org/1999/xlink" viewBox="0 0 64 64">
  <defs>
    <style>
      .cls-1 {
        fill: url(#linear-gradient);
        fill-rule: evenodd;
        stroke-width: 0px;
      }
    </style>
    <linearGradient id="linear-gradient" x1="32" y1="59.87" x2="32" y2="5.09" gradientUnits="userSpaceOnUse">
      <stop offset="0" stop-color="#9e7cff"/>
      <stop offset="1" stop-color="#c78eff"/>
    </linearGradient>
  </defs>
  <path class="cls-1" d="m61.01,43.07L42.02,9.71h-.01c-1.79-3.76-5.59-6.39-10-6.46-4.42.07-8.22,2.7-10,6.46h-.01S2.99,43.07,2.99,43.07c-3.01,5.24-1.32,11.84,3.92,14.85,1.66.95,3.55,1.44,5.46,1.44.17,0,.29,0,.51,0h38.25c.22,0,.34,0,.51,0,1.91,0,3.8-.48,5.46-1.44,5.24-3.01,6.93-9.61,3.92-14.85ZM31.81,9.71c2.66,0,4.82,2.16,4.82,4.82s-2.16,4.82-4.82,4.82-4.82-2.16-4.82-4.82,2.16-4.82,4.82-4.82Zm3.62,43.18H16c-5.23,0-8.49-5.67-5.85-10.19l10.24-17.64c1.25-2.14,4.01-2.87,6.15-1.62,2.14,1.25,2.87,4.01,1.62,6.15l-8.29,14.3h15.57c2.48,0,4.5,2.01,4.5,4.5s-2.01,4.5-4.5,4.5Zm18.32-.46c-2.15,1.24-4.9.5-6.14-1.66l-12.2-21.21c-1.24-2.15-.5-4.9,1.66-6.14,2.15-1.24,4.9-.5,6.14,1.66l12.2,21.21c1.24,2.15.5,4.9-1.66,6.14Z"/>
</svg>